<?xml version="1.0" encoding="utf-8"?>
<!-- Generator: Adobe Illustrator 23.0.2, SVG Export Plug-In . SVG Version: 6.00 Build 0)  -->
<svg version="1.1" id="Layer_1" xmlns="http://www.w3.org/2000/svg" xmlns:xlink="http://www.w3.org/1999/xlink" x="0px" y="0px"
	 viewBox="0 0 150 100" style="enable-background:new 0 0 150 100;" xml:space="preserve">
<style type="text/css">
	.st0{fill:#FFFFFF;}
</style>
<g>
	<path class="st0" d="M10.3,44.4c3.1-1.2,6.3-2.8,9.5-4.8s6-4.3,8.4-6.9h6.9v56.4h-9.8V45.9c-1.5,1.1-3.3,2.3-5.5,3.3
		c-2.2,1.1-4.4,2-6.4,2.7L10.3,44.4z"/>
	<path class="st0" d="M91.9,60.9c0,9.5-1.7,16.8-5.2,21.8c-3.5,5.1-8.3,7.6-14.4,7.6s-10.9-2.5-14.4-7.6s-5.2-12.4-5.2-21.8
		c0-4.7,0.4-8.9,1.3-12.6c0.9-3.7,2.2-6.7,3.9-9.2s3.8-4.4,6.2-5.7c2.4-1.3,5.1-2,8.2-2c6.1,0,10.9,2.5,14.4,7.6
		C90.1,44.1,91.9,51.4,91.9,60.9z M81.7,60.9c0-2.9-0.2-5.7-0.5-8.2s-0.9-4.8-1.6-6.6c-0.7-1.9-1.7-3.3-2.9-4.4
		c-1.2-1.1-2.7-1.6-4.5-1.6s-3.3,0.5-4.5,1.6s-2.2,2.6-2.9,4.4c-0.7,1.9-1.2,4.1-1.5,6.6s-0.4,5.3-0.4,8.2s0.1,5.7,0.4,8.2
		c0.3,2.5,0.8,4.8,1.5,6.6c0.7,1.9,1.7,3.3,2.9,4.4c1.2,1.1,2.7,1.6,4.5,1.6s3.3-0.5,4.5-1.6c1.2-1.1,2.2-2.6,2.9-4.4
		c0.7-1.9,1.3-4.1,1.6-6.6C81.5,66.5,81.7,63.8,81.7,60.9z"/>
	<path class="st0" d="M132.4,32.7v34.8h6.3v8.1h-6.3v13.5h-9.6V75.6H98v-7c1.1-2.4,2.5-5.1,4.4-8.2c1.8-3.1,3.8-6.3,6.1-9.5
		c2.2-3.3,4.6-6.5,7.1-9.6c2.5-3.1,5-6,7.5-8.5L132.4,32.7L132.4,32.7z M122.8,44.8c-1.3,1.6-2.6,3.3-4,5c-1.4,1.8-2.7,3.7-4,5.6
		s-2.5,3.9-3.7,6c-1.2,2-2.3,4.1-3.3,6.1h15V44.8z"/>
</g>
<g>
	<path class="st0" d="M20.5,13.1c0,1.1-0.3,2-0.9,2.7s-1.4,1.1-2.4,1.4c0.2,0.3,0.5,0.7,0.9,1.2s0.8,1,1.1,1.6
		c0.4,0.6,0.8,1.2,1.2,1.8c0.4,0.6,0.7,1.3,1,1.8h-1.6c-0.3-0.6-0.6-1.2-1-1.7c-0.4-0.6-0.7-1.1-1.1-1.7c-0.4-0.5-0.7-1.1-1.1-1.5
		c-0.3-0.5-0.7-0.9-0.9-1.2c-0.5,0-0.9,0.1-1.4,0.1h-2.4v6.1h-1.5V8.8c0.5-0.1,1.1-0.3,1.8-0.3c0.7-0.1,1.4-0.1,2-0.1
		c2.1,0,3.7,0.4,4.7,1.2C20,10.3,20.5,11.5,20.5,13.1z M14.4,9.7c-0.6,0-1,0-1.5,0.1c-0.4,0-0.8,0.1-1,0.1v6.5H14
		c0.7,0,1.3,0,1.9-0.1c0.6-0.1,1.1-0.2,1.6-0.4c0.5-0.2,0.8-0.6,1.1-1c0.3-0.4,0.4-1,0.4-1.7s-0.1-1.2-0.4-1.7c-0.3-0.4-0.6-0.8-1-1
		c-0.4-0.3-0.9-0.4-1.5-0.5C15.5,9.7,14.9,9.7,14.4,9.7z"/>
	<path class="st0" d="M23.9,23.7V8.5h8.7v1.3h-7.3v5.3h6.5v1.3h-6.5v6h7.8v1.3C33.1,23.7,23.9,23.7,23.9,23.7z"/>
	<path class="st0" d="M39.3,22.7c1.2,0,2.1-0.2,2.8-0.6s1-1.1,1-2.1c0-0.6-0.1-1-0.3-1.4s-0.5-0.7-0.8-0.9c-0.4-0.3-0.8-0.5-1.2-0.7
		c-0.5-0.2-0.9-0.4-1.4-0.6c-0.6-0.2-1.2-0.5-1.7-0.8s-0.9-0.6-1.3-0.9c-0.3-0.3-0.6-0.7-0.8-1.1s-0.3-0.9-0.3-1.5
		c0-1.3,0.4-2.3,1.3-3c0.9-0.7,2.1-1,3.6-1c0.4,0,0.8,0,1.2,0.1s0.8,0.1,1.1,0.2s0.7,0.2,0.9,0.3c0.3,0.1,0.5,0.2,0.7,0.4l-0.6,1.3
		c-0.4-0.3-0.9-0.5-1.5-0.7s-1.3-0.3-2-0.3c-0.5,0-0.9,0-1.3,0.1c-0.4,0.1-0.7,0.2-1,0.5c-0.3,0.2-0.5,0.5-0.7,0.8s-0.3,0.7-0.3,1.2
		s0.1,0.9,0.3,1.2c0.2,0.3,0.4,0.6,0.7,0.8c0.3,0.2,0.7,0.4,1.1,0.6c0.4,0.2,0.9,0.4,1.4,0.6c0.6,0.2,1.2,0.5,1.7,0.7s1,0.5,1.4,0.9
		c0.4,0.3,0.7,0.7,0.9,1.2s0.4,1.1,0.4,1.8c0,1.4-0.5,2.4-1.4,3.1c-1,0.7-2.2,1-3.9,1c-0.6,0-1.1,0-1.6-0.1s-0.9-0.2-1.3-0.3
		c-0.4-0.1-0.7-0.2-1-0.3c-0.3-0.1-0.5-0.2-0.6-0.3l0.5-1.3c0.1,0.1,0.3,0.2,0.6,0.3c0.2,0.1,0.5,0.2,0.9,0.3
		c0.3,0.1,0.7,0.2,1.1,0.3C38.3,22.7,38.8,22.7,39.3,22.7z"/>
	<path class="st0" d="M57,8.5v1.3h-4.9v13.9h-1.5V9.8h-4.9V8.5H57z"/>
	<path class="st0" d="M68.4,23.7c-0.3-0.7-0.6-1.5-0.8-2.1c-0.2-0.7-0.5-1.4-0.7-2h-7.4c-0.3,0.7-0.5,1.3-0.7,2S58.3,23,58,23.7
		h-1.6c0.6-1.6,1.1-3,1.6-4.4s1-2.7,1.5-3.9c0.5-1.2,1-2.4,1.5-3.5s1-2.2,1.5-3.4h1.3c0.5,1.1,1,2.2,1.5,3.4c0.5,1.1,1,2.3,1.5,3.5
		s1,2.5,1.5,3.9s1.1,2.8,1.7,4.4H68.4z M63.2,10.2c-0.5,1.3-1.1,2.5-1.6,3.8s-1.1,2.7-1.6,4.2h6.5c-0.6-1.5-1.1-2.9-1.6-4.2
		C64.3,12.7,63.7,11.5,63.2,10.2z"/>
	<path class="st0" d="M77.7,24c-1,0-1.9-0.2-2.6-0.5s-1.3-0.7-1.7-1.3c-0.4-0.5-0.8-1.2-1-1.9c-0.2-0.7-0.3-1.5-0.3-2.3V8.5h1.5v9.3
		c0,0.8,0.1,1.5,0.3,2.2c0.2,0.6,0.5,1.1,0.8,1.5s0.8,0.7,1.3,0.9c0.5,0.2,1.1,0.3,1.7,0.3s1.2-0.1,1.7-0.3s0.9-0.5,1.3-0.9
		c0.3-0.4,0.6-0.9,0.8-1.5c0.2-0.6,0.3-1.3,0.3-2.2V8.5h1.5V18c0,0.8-0.1,1.6-0.3,2.3c-0.2,0.7-0.5,1.4-1,1.9c-0.4,0.5-1,1-1.7,1.3
		C79.5,23.8,78.7,24,77.7,24z"/>
	<path class="st0" d="M97.2,13.1c0,1.1-0.3,2-0.9,2.7s-1.4,1.1-2.4,1.4c0.2,0.3,0.5,0.7,0.9,1.2s0.8,1,1.1,1.6
		c0.4,0.6,0.8,1.2,1.2,1.8c0.4,0.6,0.7,1.3,1,1.8h-1.6c-0.3-0.6-0.6-1.2-1-1.7c-0.4-0.6-0.7-1.1-1.1-1.7c-0.4-0.5-0.7-1.1-1.1-1.5
		c-0.3-0.5-0.7-0.9-0.9-1.2c-0.5,0-0.9,0.1-1.4,0.1h-2.4v6.1h-1.5V8.8c0.5-0.1,1.1-0.3,1.8-0.3c0.7-0.1,1.4-0.1,2-0.1
		c2.1,0,3.7,0.4,4.7,1.2C96.7,10.3,97.2,11.5,97.2,13.1z M91.1,9.7c-0.6,0-1,0-1.5,0.1c-0.4,0-0.8,0.1-1,0.1v6.5h2.1
		c0.7,0,1.3,0,1.9-0.1s1.1-0.2,1.6-0.4c0.5-0.2,0.8-0.6,1.1-1c0.3-0.4,0.4-1,0.4-1.7s-0.1-1.2-0.4-1.7c-0.3-0.4-0.6-0.8-1-1
		c-0.4-0.3-0.9-0.4-1.5-0.5C92.2,9.7,91.7,9.7,91.1,9.7z"/>
	<path class="st0" d="M111.4,23.7c-0.3-0.7-0.6-1.5-0.8-2.1c-0.2-0.7-0.5-1.4-0.7-2h-7.4c-0.3,0.7-0.5,1.3-0.7,2s-0.5,1.4-0.8,2.1
		h-1.6c0.6-1.6,1.1-3,1.6-4.4s1-2.7,1.5-3.9c0.5-1.2,1-2.4,1.5-3.5s1-2.2,1.5-3.4h1.3c0.5,1.1,1,2.2,1.5,3.4c0.5,1.1,1,2.3,1.5,3.5
		s1,2.5,1.5,3.9s1.1,2.8,1.7,4.4H111.4z M106.2,10.2c-0.5,1.3-1.1,2.5-1.6,3.8s-1.1,2.7-1.6,4.2h6.5c-0.6-1.5-1.1-2.9-1.6-4.2
		C107.3,12.7,106.8,11.5,106.2,10.2z"/>
	<path class="st0" d="M125.6,23.7c-0.3-0.5-0.6-1.1-1.1-1.8c-0.4-0.7-0.9-1.4-1.4-2.2c-0.5-0.8-1.1-1.6-1.6-2.4
		c-0.6-0.8-1.1-1.6-1.7-2.4s-1.1-1.5-1.6-2.2s-1-1.3-1.4-1.8v12.8h-1.5V8.5h1.2c0.7,0.8,1.5,1.8,2.4,2.9s1.7,2.2,2.5,3.3
		s1.6,2.2,2.3,3.3c0.7,1.1,1.3,2,1.7,2.8V8.5h1.5v15.2C126.9,23.7,125.6,23.7,125.6,23.7z"/>
	<path class="st0" d="M140.4,8.5v1.3h-4.9v13.9H134V9.8h-4.9V8.5H140.4z"/>
</g>
</svg>
