<?xml version="1.0" encoding="utf-8"?>
<!-- Generator: Adobe Illustrator 25.2.1, SVG Export Plug-In . SVG Version: 6.00 Build 0)  -->
<svg version="1.1" id="Layer_1" xmlns="http://www.w3.org/2000/svg" xmlns:xlink="http://www.w3.org/1999/xlink" x="0px" y="0px"
	 viewBox="0 0 150 100" style="enable-background:new 0 0 150 100;" xml:space="preserve">
<style type="text/css">
	.st0{fill:#FFFFFF;}
</style>
<g>
	<path class="st0" d="M10.3,21.1c3.1-1.2,6.3-2.8,9.5-4.8s6-4.3,8.4-6.9h6.9v56.4h-9.8V22.6c-1.5,1.1-3.3,2.3-5.5,3.3
		c-2.2,1.1-4.4,2-6.4,2.7L10.3,21.1z"/>
	<path class="st0" d="M91.9,37.6c0,9.5-1.7,16.8-5.2,21.8c-3.5,5.1-8.3,7.6-14.4,7.6c-6.1,0-10.9-2.5-14.4-7.6
		c-3.5-5.1-5.2-12.4-5.2-21.8c0-4.7,0.4-8.9,1.3-12.6c0.9-3.7,2.2-6.7,3.9-9.2c1.7-2.5,3.8-4.4,6.2-5.7c2.4-1.3,5.1-2,8.2-2
		c6.1,0,10.9,2.5,14.4,7.6C90.1,20.8,91.9,28.1,91.9,37.6z M81.7,37.6c0-2.9-0.2-5.7-0.5-8.2c-0.3-2.5-0.9-4.8-1.6-6.6
		c-0.7-1.9-1.7-3.3-2.9-4.4c-1.2-1.1-2.7-1.6-4.5-1.6c-1.8,0-3.3,0.5-4.5,1.6c-1.2,1.1-2.2,2.6-2.9,4.4c-0.7,1.9-1.2,4.1-1.5,6.6
		c-0.3,2.5-0.4,5.3-0.4,8.2c0,2.9,0.1,5.7,0.4,8.2c0.3,2.5,0.8,4.8,1.5,6.6c0.7,1.9,1.7,3.3,2.9,4.4c1.2,1.1,2.7,1.6,4.5,1.6
		c1.8,0,3.3-0.5,4.5-1.6c1.2-1.1,2.2-2.6,2.9-4.4c0.7-1.9,1.3-4.1,1.6-6.6C81.5,43.2,81.7,40.5,81.7,37.6z"/>
	<path class="st0" d="M132.4,9.4v34.8h6.3v8.1h-6.3v13.5h-9.6V52.3H98v-7c1.1-2.4,2.5-5.1,4.4-8.2c1.8-3.1,3.8-6.3,6.1-9.5
		c2.2-3.3,4.6-6.5,7.1-9.6c2.5-3.1,5-6,7.5-8.5H132.4z M122.8,21.5c-1.3,1.6-2.6,3.3-4,5c-1.4,1.8-2.7,3.7-4,5.6s-2.5,3.9-3.7,6
		c-1.2,2-2.3,4.1-3.3,6.1h15V21.5z"/>
</g>
<g>
	<path class="st0" d="M20.5,79.7c0,1.1-0.3,2-0.9,2.7c-0.6,0.7-1.4,1.1-2.4,1.4c0.2,0.3,0.5,0.7,0.9,1.2c0.4,0.5,0.8,1,1.1,1.6
		c0.4,0.6,0.8,1.2,1.2,1.8c0.4,0.6,0.7,1.3,1,1.8h-1.6c-0.3-0.6-0.6-1.2-1-1.7c-0.4-0.6-0.7-1.1-1.1-1.7c-0.4-0.5-0.7-1.1-1.1-1.5
		c-0.3-0.5-0.7-0.9-0.9-1.2c-0.5,0-0.9,0.1-1.4,0.1h-2.4v6.1h-1.5V75.4c0.5-0.1,1.1-0.3,1.8-0.3c0.7-0.1,1.4-0.1,2-0.1
		c2.1,0,3.7,0.4,4.7,1.2C20,76.9,20.5,78.1,20.5,79.7z M14.4,76.3c-0.6,0-1,0-1.5,0.1c-0.4,0-0.8,0.1-1,0.1v6.5h2.1
		c0.7,0,1.3,0,1.9-0.1c0.6-0.1,1.1-0.2,1.6-0.4c0.5-0.2,0.8-0.6,1.1-1c0.3-0.4,0.4-1,0.4-1.7c0-0.7-0.1-1.2-0.4-1.7
		c-0.3-0.4-0.6-0.8-1-1c-0.4-0.3-0.9-0.4-1.5-0.5C15.5,76.3,14.9,76.3,14.4,76.3z"/>
	<path class="st0" d="M23.9,90.3V75.1h8.7v1.3h-7.3v5.3h6.5v1.3h-6.5v6h7.8v1.3H23.9z"/>
	<path class="st0" d="M39.3,89.3c1.2,0,2.1-0.2,2.8-0.6c0.7-0.4,1-1.1,1-2.1c0-0.6-0.1-1-0.3-1.4c-0.2-0.4-0.5-0.7-0.8-0.9
		c-0.4-0.3-0.8-0.5-1.2-0.7c-0.5-0.2-0.9-0.4-1.4-0.6c-0.6-0.2-1.2-0.5-1.7-0.8c-0.5-0.3-0.9-0.6-1.3-0.9c-0.3-0.3-0.6-0.7-0.8-1.1
		c-0.2-0.4-0.3-0.9-0.3-1.5c0-1.3,0.4-2.3,1.3-3c0.9-0.7,2.1-1,3.6-1c0.4,0,0.8,0,1.2,0.1c0.4,0.1,0.8,0.1,1.1,0.2
		c0.3,0.1,0.7,0.2,0.9,0.3c0.3,0.1,0.5,0.2,0.7,0.4L43.5,77c-0.4-0.3-0.9-0.5-1.5-0.7c-0.6-0.2-1.3-0.3-2-0.3c-0.5,0-0.9,0-1.3,0.1
		c-0.4,0.1-0.7,0.2-1,0.5c-0.3,0.2-0.5,0.5-0.7,0.8c-0.2,0.3-0.3,0.7-0.3,1.2c0,0.5,0.1,0.9,0.3,1.2c0.2,0.3,0.4,0.6,0.7,0.8
		c0.3,0.2,0.7,0.4,1.1,0.6c0.4,0.2,0.9,0.4,1.4,0.6c0.6,0.2,1.2,0.5,1.7,0.7c0.5,0.2,1,0.5,1.4,0.9c0.4,0.3,0.7,0.7,0.9,1.2
		c0.2,0.5,0.4,1.1,0.4,1.8c0,1.4-0.5,2.4-1.4,3.1c-1,0.7-2.2,1-3.9,1c-0.6,0-1.1,0-1.6-0.1c-0.5-0.1-0.9-0.2-1.3-0.3
		c-0.4-0.1-0.7-0.2-1-0.3c-0.3-0.1-0.5-0.2-0.6-0.3l0.5-1.3c0.1,0.1,0.3,0.2,0.6,0.3c0.2,0.1,0.5,0.2,0.9,0.3
		c0.3,0.1,0.7,0.2,1.1,0.3C38.3,89.3,38.8,89.3,39.3,89.3z"/>
	<path class="st0" d="M57,75.1v1.3h-4.9v13.9h-1.5V76.4h-4.9v-1.3H57z"/>
	<path class="st0" d="M68.4,90.3c-0.3-0.7-0.6-1.5-0.8-2.1c-0.2-0.7-0.5-1.4-0.7-2h-7.4c-0.3,0.7-0.5,1.3-0.7,2
		c-0.2,0.7-0.5,1.4-0.8,2.1h-1.6c0.6-1.6,1.1-3,1.6-4.4c0.5-1.4,1-2.7,1.5-3.9c0.5-1.2,1-2.4,1.5-3.5c0.5-1.1,1-2.2,1.5-3.4h1.3
		c0.5,1.1,1,2.2,1.5,3.4c0.5,1.1,1,2.3,1.5,3.5c0.5,1.2,1,2.5,1.5,3.9c0.5,1.4,1.1,2.8,1.7,4.4H68.4z M63.2,76.8
		c-0.5,1.3-1.1,2.5-1.6,3.8c-0.5,1.3-1.1,2.7-1.6,4.2h6.5c-0.6-1.5-1.1-2.9-1.6-4.2C64.3,79.3,63.7,78.1,63.2,76.8z"/>
	<path class="st0" d="M77.7,90.6c-1,0-1.9-0.2-2.6-0.5c-0.7-0.3-1.3-0.7-1.7-1.3c-0.4-0.5-0.8-1.2-1-1.9c-0.2-0.7-0.3-1.5-0.3-2.3
		v-9.5h1.5v9.3c0,0.8,0.1,1.5,0.3,2.2c0.2,0.6,0.5,1.1,0.8,1.5c0.3,0.4,0.8,0.7,1.3,0.9c0.5,0.2,1.1,0.3,1.7,0.3
		c0.6,0,1.2-0.1,1.7-0.3s0.9-0.5,1.3-0.9c0.3-0.4,0.6-0.9,0.8-1.5c0.2-0.6,0.3-1.3,0.3-2.2v-9.3h1.5v9.5c0,0.8-0.1,1.6-0.3,2.3
		c-0.2,0.7-0.5,1.4-1,1.9c-0.4,0.5-1,1-1.7,1.3C79.5,90.4,78.7,90.6,77.7,90.6z"/>
	<path class="st0" d="M97.2,79.7c0,1.1-0.3,2-0.9,2.7c-0.6,0.7-1.4,1.1-2.4,1.4c0.2,0.3,0.5,0.7,0.9,1.2c0.4,0.5,0.8,1,1.1,1.6
		c0.4,0.6,0.8,1.2,1.2,1.8c0.4,0.6,0.7,1.3,1,1.8h-1.6c-0.3-0.6-0.6-1.2-1-1.7c-0.4-0.6-0.7-1.1-1.1-1.7c-0.4-0.5-0.7-1.1-1.1-1.5
		c-0.3-0.5-0.7-0.9-0.9-1.2c-0.5,0-0.9,0.1-1.4,0.1h-2.4v6.1h-1.5V75.4c0.5-0.1,1.1-0.3,1.8-0.3c0.7-0.1,1.4-0.1,2-0.1
		c2.1,0,3.7,0.4,4.7,1.2C96.7,76.9,97.2,78.1,97.2,79.7z M91.1,76.3c-0.6,0-1,0-1.5,0.1c-0.4,0-0.8,0.1-1,0.1v6.5h2.1
		c0.7,0,1.3,0,1.9-0.1c0.6-0.1,1.1-0.2,1.6-0.4c0.5-0.2,0.8-0.6,1.1-1c0.3-0.4,0.4-1,0.4-1.7c0-0.7-0.1-1.2-0.4-1.7
		c-0.3-0.4-0.6-0.8-1-1c-0.4-0.3-0.9-0.4-1.5-0.5C92.2,76.3,91.7,76.3,91.1,76.3z"/>
	<path class="st0" d="M111.4,90.3c-0.3-0.7-0.6-1.5-0.8-2.1c-0.2-0.7-0.5-1.4-0.7-2h-7.4c-0.3,0.7-0.5,1.3-0.7,2
		c-0.2,0.7-0.5,1.4-0.8,2.1h-1.6c0.6-1.6,1.1-3,1.6-4.4c0.5-1.4,1-2.7,1.5-3.9c0.5-1.2,1-2.4,1.5-3.5c0.5-1.1,1-2.2,1.5-3.4h1.3
		c0.5,1.1,1,2.2,1.5,3.4c0.5,1.1,1,2.3,1.5,3.5c0.5,1.2,1,2.5,1.5,3.9c0.5,1.4,1.1,2.8,1.7,4.4H111.4z M106.2,76.8
		c-0.5,1.3-1.1,2.5-1.6,3.8c-0.5,1.3-1.1,2.7-1.6,4.2h6.5c-0.6-1.5-1.1-2.9-1.6-4.2C107.3,79.3,106.8,78.1,106.2,76.8z"/>
	<path class="st0" d="M125.6,90.3c-0.3-0.5-0.6-1.1-1.1-1.8c-0.4-0.7-0.9-1.4-1.4-2.2c-0.5-0.8-1.1-1.6-1.6-2.4
		c-0.6-0.8-1.1-1.6-1.7-2.4s-1.1-1.5-1.6-2.2c-0.5-0.7-1-1.3-1.4-1.8v12.8h-1.5V75.1h1.2c0.7,0.8,1.5,1.8,2.4,2.9
		c0.9,1.1,1.7,2.2,2.5,3.3s1.6,2.2,2.3,3.3c0.7,1.1,1.3,2,1.7,2.8V75.1h1.5v15.2H125.6z"/>
	<path class="st0" d="M140.4,75.1v1.3h-4.9v13.9H134V76.4h-4.9v-1.3H140.4z"/>
</g>
</svg>
